<mxfile host="app.diagrams.net" modified="2023-10-23T14:46:39.853Z" agent="Mozilla/5.0 (Windows NT 10.0; Win64; x64) AppleWebKit/537.36 (KHTML, like Gecko) Chrome/118.0.0.0 Safari/537.36" etag="pM1QmAIhwVFMsxR-lpq8" version="22.0.6" type="github">
  <diagram name="페이지-1" id="UMI8VtXDYn09Z34tsWC9">
    <mxGraphModel dx="1140" dy="968" grid="1" gridSize="10" guides="1" tooltips="1" connect="1" arrows="1" fold="1" page="1" pageScale="1" pageWidth="827" pageHeight="1169" math="0" shadow="0">
      <root>
        <mxCell id="0" />
        <mxCell id="1" parent="0" />
        <mxCell id="cTEIBr7lMICJrwPpBbNe-1" value="이용자" style="shape=umlActor;verticalLabelPosition=bottom;verticalAlign=top;html=1;" vertex="1" parent="1">
          <mxGeometry x="60" y="455" width="30" height="60" as="geometry" />
        </mxCell>
        <mxCell id="cTEIBr7lMICJrwPpBbNe-2" value="게시판 서비스" style="shape=umlFrame;whiteSpace=wrap;html=1;pointerEvents=0;width=101;height=20;" vertex="1" parent="1">
          <mxGeometry x="140" y="240" width="640" height="510" as="geometry" />
        </mxCell>
        <mxCell id="cTEIBr7lMICJrwPpBbNe-4" value="회원 가입" style="rounded=1;whiteSpace=wrap;html=1;arcSize=40;fontColor=#000000;fillColor=#ffffc0;strokeColor=#ff0000;" vertex="1" parent="1">
          <mxGeometry x="200" y="390" width="120" height="40" as="geometry" />
        </mxCell>
        <mxCell id="cTEIBr7lMICJrwPpBbNe-28" style="rounded=0;orthogonalLoop=1;jettySize=auto;html=1;exitX=1;exitY=0.5;exitDx=0;exitDy=0;dashed=1;endArrow=classic;endFill=1;" edge="1" parent="1" source="cTEIBr7lMICJrwPpBbNe-6" target="cTEIBr7lMICJrwPpBbNe-8">
          <mxGeometry relative="1" as="geometry" />
        </mxCell>
        <mxCell id="cTEIBr7lMICJrwPpBbNe-39" style="rounded=0;orthogonalLoop=1;jettySize=auto;html=1;entryX=0;entryY=0.5;entryDx=0;entryDy=0;endArrow=none;endFill=0;" edge="1" parent="1" source="cTEIBr7lMICJrwPpBbNe-6" target="cTEIBr7lMICJrwPpBbNe-34">
          <mxGeometry relative="1" as="geometry" />
        </mxCell>
        <mxCell id="cTEIBr7lMICJrwPpBbNe-6" value="게시판 보기" style="rounded=1;whiteSpace=wrap;html=1;arcSize=40;fontColor=#000000;fillColor=#ffffc0;strokeColor=#ff0000;" vertex="1" parent="1">
          <mxGeometry x="200" y="475" width="120" height="40" as="geometry" />
        </mxCell>
        <mxCell id="cTEIBr7lMICJrwPpBbNe-21" style="rounded=0;orthogonalLoop=1;jettySize=auto;html=1;endArrow=none;endFill=0;entryX=1;entryY=0.3333333333333333;entryDx=0;entryDy=0;entryPerimeter=0;" edge="1" parent="1" source="cTEIBr7lMICJrwPpBbNe-7" target="cTEIBr7lMICJrwPpBbNe-1">
          <mxGeometry relative="1" as="geometry">
            <mxPoint x="90" y="470" as="targetPoint" />
          </mxGeometry>
        </mxCell>
        <mxCell id="cTEIBr7lMICJrwPpBbNe-29" style="rounded=0;orthogonalLoop=1;jettySize=auto;html=1;exitX=1;exitY=0.5;exitDx=0;exitDy=0;endArrow=classic;endFill=1;dashed=1;" edge="1" parent="1" source="cTEIBr7lMICJrwPpBbNe-7" target="cTEIBr7lMICJrwPpBbNe-8">
          <mxGeometry relative="1" as="geometry" />
        </mxCell>
        <mxCell id="cTEIBr7lMICJrwPpBbNe-40" style="rounded=0;orthogonalLoop=1;jettySize=auto;html=1;entryX=0;entryY=0.5;entryDx=0;entryDy=0;endArrow=none;endFill=0;" edge="1" parent="1" source="cTEIBr7lMICJrwPpBbNe-7" target="cTEIBr7lMICJrwPpBbNe-34">
          <mxGeometry relative="1" as="geometry" />
        </mxCell>
        <mxCell id="cTEIBr7lMICJrwPpBbNe-7" value="게시 보기" style="rounded=1;whiteSpace=wrap;html=1;arcSize=40;fontColor=#000000;fillColor=#ffffc0;strokeColor=#ff0000;" vertex="1" parent="1">
          <mxGeometry x="200" y="560" width="120" height="40" as="geometry" />
        </mxCell>
        <mxCell id="cTEIBr7lMICJrwPpBbNe-22" style="rounded=0;orthogonalLoop=1;jettySize=auto;html=1;exitX=1;exitY=0.5;exitDx=0;exitDy=0;endArrow=classic;endFill=1;dashed=1;" edge="1" parent="1" source="cTEIBr7lMICJrwPpBbNe-8" target="cTEIBr7lMICJrwPpBbNe-9">
          <mxGeometry relative="1" as="geometry" />
        </mxCell>
        <mxCell id="cTEIBr7lMICJrwPpBbNe-24" value="&amp;lt;&amp;lt;include&amp;gt;&amp;gt;" style="edgeLabel;html=1;align=center;verticalAlign=middle;resizable=0;points=[];" vertex="1" connectable="0" parent="cTEIBr7lMICJrwPpBbNe-22">
          <mxGeometry x="0.0233" y="1" relative="1" as="geometry">
            <mxPoint as="offset" />
          </mxGeometry>
        </mxCell>
        <mxCell id="cTEIBr7lMICJrwPpBbNe-8" value="회원 로그인" style="rounded=1;whiteSpace=wrap;html=1;arcSize=40;fontColor=#000000;fillColor=#ffffc0;strokeColor=#ff0000;" vertex="1" parent="1">
          <mxGeometry x="310" y="280" width="120" height="40" as="geometry" />
        </mxCell>
        <mxCell id="cTEIBr7lMICJrwPpBbNe-38" style="rounded=0;orthogonalLoop=1;jettySize=auto;html=1;entryX=0;entryY=0.5;entryDx=0;entryDy=0;endArrow=none;endFill=0;" edge="1" parent="1" source="cTEIBr7lMICJrwPpBbNe-9" target="cTEIBr7lMICJrwPpBbNe-34">
          <mxGeometry relative="1" as="geometry" />
        </mxCell>
        <mxCell id="cTEIBr7lMICJrwPpBbNe-9" value="인증" style="rounded=1;whiteSpace=wrap;html=1;arcSize=40;fontColor=#000000;fillColor=#ffffc0;strokeColor=#ff0000;" vertex="1" parent="1">
          <mxGeometry x="610" y="280" width="120" height="40" as="geometry" />
        </mxCell>
        <mxCell id="cTEIBr7lMICJrwPpBbNe-23" style="rounded=0;orthogonalLoop=1;jettySize=auto;html=1;entryX=1;entryY=0.5;entryDx=0;entryDy=0;endArrow=classic;endFill=1;exitX=0;exitY=0.5;exitDx=0;exitDy=0;dashed=1;" edge="1" parent="1" source="cTEIBr7lMICJrwPpBbNe-10" target="cTEIBr7lMICJrwPpBbNe-8">
          <mxGeometry relative="1" as="geometry" />
        </mxCell>
        <mxCell id="cTEIBr7lMICJrwPpBbNe-26" value="&amp;lt;&amp;lt;extend&amp;gt;&amp;gt;" style="edgeLabel;html=1;align=center;verticalAlign=middle;resizable=0;points=[];" vertex="1" connectable="0" parent="cTEIBr7lMICJrwPpBbNe-23">
          <mxGeometry x="-0.0003" y="2" relative="1" as="geometry">
            <mxPoint as="offset" />
          </mxGeometry>
        </mxCell>
        <mxCell id="cTEIBr7lMICJrwPpBbNe-10" value="로그인 실패" style="rounded=1;whiteSpace=wrap;html=1;arcSize=40;fontColor=#000000;fillColor=#ffffc0;strokeColor=#ff0000;" vertex="1" parent="1">
          <mxGeometry x="610" y="340" width="120" height="40" as="geometry" />
        </mxCell>
        <mxCell id="cTEIBr7lMICJrwPpBbNe-30" style="rounded=0;orthogonalLoop=1;jettySize=auto;html=1;entryX=1;entryY=0.5;entryDx=0;entryDy=0;dashed=1;" edge="1" parent="1" source="cTEIBr7lMICJrwPpBbNe-13" target="cTEIBr7lMICJrwPpBbNe-6">
          <mxGeometry relative="1" as="geometry" />
        </mxCell>
        <mxCell id="cTEIBr7lMICJrwPpBbNe-13" value="게시판 정렬하기" style="rounded=1;whiteSpace=wrap;html=1;arcSize=40;fontColor=#000000;fillColor=#ffffc0;strokeColor=#ff0000;" vertex="1" parent="1">
          <mxGeometry x="380" y="400" width="120" height="40" as="geometry" />
        </mxCell>
        <mxCell id="cTEIBr7lMICJrwPpBbNe-31" style="rounded=0;orthogonalLoop=1;jettySize=auto;html=1;entryX=1;entryY=0.5;entryDx=0;entryDy=0;dashed=1;" edge="1" parent="1" source="cTEIBr7lMICJrwPpBbNe-14" target="cTEIBr7lMICJrwPpBbNe-6">
          <mxGeometry relative="1" as="geometry" />
        </mxCell>
        <mxCell id="cTEIBr7lMICJrwPpBbNe-14" value="게시판 검색" style="rounded=1;whiteSpace=wrap;html=1;arcSize=40;fontColor=#000000;fillColor=#ffffc0;strokeColor=#ff0000;" vertex="1" parent="1">
          <mxGeometry x="380" y="500" width="120" height="40" as="geometry" />
        </mxCell>
        <mxCell id="cTEIBr7lMICJrwPpBbNe-32" style="rounded=0;orthogonalLoop=1;jettySize=auto;html=1;entryX=1;entryY=0.5;entryDx=0;entryDy=0;dashed=1;" edge="1" parent="1" source="cTEIBr7lMICJrwPpBbNe-15" target="cTEIBr7lMICJrwPpBbNe-7">
          <mxGeometry relative="1" as="geometry" />
        </mxCell>
        <mxCell id="cTEIBr7lMICJrwPpBbNe-41" style="rounded=0;orthogonalLoop=1;jettySize=auto;html=1;entryX=0;entryY=0.5;entryDx=0;entryDy=0;endArrow=none;endFill=0;exitX=1;exitY=0.5;exitDx=0;exitDy=0;" edge="1" parent="1" source="cTEIBr7lMICJrwPpBbNe-15" target="cTEIBr7lMICJrwPpBbNe-34">
          <mxGeometry relative="1" as="geometry" />
        </mxCell>
        <mxCell id="cTEIBr7lMICJrwPpBbNe-15" value="게시글 쓰기, 수정, 삭제" style="rounded=1;whiteSpace=wrap;html=1;arcSize=40;fontColor=#000000;fillColor=#ffffc0;strokeColor=#ff0000;" vertex="1" parent="1">
          <mxGeometry x="475" y="580" width="130" height="40" as="geometry" />
        </mxCell>
        <mxCell id="cTEIBr7lMICJrwPpBbNe-33" style="rounded=0;orthogonalLoop=1;jettySize=auto;html=1;entryX=1;entryY=0.5;entryDx=0;entryDy=0;dashed=1;" edge="1" parent="1" source="cTEIBr7lMICJrwPpBbNe-16" target="cTEIBr7lMICJrwPpBbNe-7">
          <mxGeometry relative="1" as="geometry" />
        </mxCell>
        <mxCell id="cTEIBr7lMICJrwPpBbNe-42" style="rounded=0;orthogonalLoop=1;jettySize=auto;html=1;entryX=0;entryY=0.5;entryDx=0;entryDy=0;endArrow=none;endFill=0;" edge="1" parent="1" source="cTEIBr7lMICJrwPpBbNe-16" target="cTEIBr7lMICJrwPpBbNe-34">
          <mxGeometry relative="1" as="geometry" />
        </mxCell>
        <mxCell id="cTEIBr7lMICJrwPpBbNe-16" value="댓글 보기, 쓰기, &lt;br&gt;수정, 삭제" style="rounded=1;whiteSpace=wrap;html=1;arcSize=40;fontColor=#000000;fillColor=#ffffc0;strokeColor=#ff0000;" vertex="1" parent="1">
          <mxGeometry x="475" y="650" width="130" height="40" as="geometry" />
        </mxCell>
        <mxCell id="cTEIBr7lMICJrwPpBbNe-17" style="rounded=0;orthogonalLoop=1;jettySize=auto;html=1;entryX=1;entryY=0.3333333333333333;entryDx=0;entryDy=0;entryPerimeter=0;endArrow=none;endFill=0;exitX=0;exitY=0.5;exitDx=0;exitDy=0;" edge="1" parent="1" source="cTEIBr7lMICJrwPpBbNe-4" target="cTEIBr7lMICJrwPpBbNe-1">
          <mxGeometry relative="1" as="geometry" />
        </mxCell>
        <mxCell id="cTEIBr7lMICJrwPpBbNe-19" style="rounded=0;orthogonalLoop=1;jettySize=auto;html=1;endArrow=none;endFill=0;exitX=0;exitY=0.5;exitDx=0;exitDy=0;entryX=1;entryY=0.3333333333333333;entryDx=0;entryDy=0;entryPerimeter=0;" edge="1" parent="1" source="cTEIBr7lMICJrwPpBbNe-8" target="cTEIBr7lMICJrwPpBbNe-1">
          <mxGeometry relative="1" as="geometry">
            <mxPoint x="90" y="470" as="targetPoint" />
          </mxGeometry>
        </mxCell>
        <mxCell id="cTEIBr7lMICJrwPpBbNe-20" style="rounded=0;orthogonalLoop=1;jettySize=auto;html=1;entryX=1;entryY=0.3333333333333333;entryDx=0;entryDy=0;entryPerimeter=0;endArrow=none;endFill=0;" edge="1" parent="1" source="cTEIBr7lMICJrwPpBbNe-6" target="cTEIBr7lMICJrwPpBbNe-1">
          <mxGeometry relative="1" as="geometry" />
        </mxCell>
        <mxCell id="cTEIBr7lMICJrwPpBbNe-34" value="DB" style="html=1;dropTarget=0;whiteSpace=wrap;" vertex="1" parent="1">
          <mxGeometry x="900" y="450" width="100" height="90" as="geometry" />
        </mxCell>
      </root>
    </mxGraphModel>
  </diagram>
</mxfile>
